<svg width="74" height="48" viewBox="0 0 74 48" fill="none" xmlns="http://www.w3.org/2000/svg">
<g id="Group">
<g id="Group_2">
<path id="Vector" opacity="0.02439" d="M1.34668 35.6662C1.46061 33.9582 4.08113 33.1611 5.22048 32.364C7.4992 30.9975 9.77791 29.745 12.0566 28.3785C13.7657 27.3537 15.5886 26.3288 17.2977 25.304C18.8928 24.3931 20.3739 23.4821 22.3108 23.9376C22.3108 23.9376 22.3108 23.9376 22.1969 23.9376C22.5387 23.9376 23.1084 24.1653 23.2223 24.1653H23.3363C23.792 24.2792 24.8174 24.9624 25.3871 25.304C26.2986 25.8734 27.2101 26.3288 28.1216 26.8982C30.0585 28.0369 31.9954 29.1756 33.8184 30.2004C36.211 31.5669 38.6037 32.9333 40.7684 34.4136C42.2496 36.1217 39.743 37.3743 38.4897 38.0575C34.1602 40.5627 29.8306 43.0678 25.501 45.5729C24.1338 46.37 22.9945 47.1671 21.2854 47.1671C19.9182 47.1671 18.7788 46.8255 17.6395 46.1423C15.8165 45.1174 13.9935 43.9788 12.1706 42.9539C8.86643 41.0181 5.3344 39.1962 2.1442 37.0327C2.37208 37.1465 2.03029 36.9188 1.91636 36.9188C1.80242 36.9188 1.68847 36.6911 1.68847 36.6911C1.57453 36.5772 1.34668 36.3495 1.34668 36.2356C1.34668 36.1217 1.34668 35.894 1.34668 35.6662Z" fill="#FDFDFF"/>
<path id="Vector_2" opacity="0.04878" d="M2.14416 35.6662C2.2581 33.9582 4.87865 33.1611 6.01801 32.364C8.29672 30.9975 10.5754 29.745 12.8541 28.3785C14.5632 27.3537 16.3861 26.3288 18.0952 25.304C19.6903 24.3931 21.1715 23.4821 23.1084 23.9376C23.1084 23.9376 23.1084 23.9376 22.9944 23.9376C23.3362 23.9376 23.9059 24.1653 24.0198 24.1653H24.1338C24.5895 24.2792 25.6149 24.9624 26.1846 25.304C27.0961 25.8734 28.0076 26.3288 28.9191 26.8982C30.856 28.0369 32.7929 29.1756 34.6158 30.2004C37.0085 31.5669 39.4011 32.9333 41.5659 34.4136C43.0471 36.1217 40.5405 37.3743 39.2872 38.0575C34.9577 40.5627 30.6281 43.0678 26.2985 45.5729C24.9313 46.37 23.7919 47.1671 22.0829 47.1671C20.7157 47.1671 19.5763 46.8255 18.437 46.1423C16.614 45.1174 14.791 43.9788 12.9681 42.9539C9.66392 41.0181 6.13192 39.1962 2.94173 37.0327C3.1696 37.1465 2.82777 36.9188 2.71384 36.9188C2.5999 36.9188 2.48599 36.6911 2.48599 36.6911C2.37206 36.5772 2.14416 36.3495 2.14416 36.2356C2.14416 36.1217 2.14416 35.894 2.14416 35.6662Z" fill="#FBFCFE"/>
<path id="Vector_3" opacity="0.073171" d="M2.94177 35.6662C3.05571 33.9582 5.67622 33.1611 6.81557 32.364C9.09429 30.9975 11.373 29.745 13.6517 28.3785C15.3608 27.3537 17.1837 26.3288 18.8928 25.304C20.4879 24.3931 21.969 23.4821 23.9059 23.9376C23.9059 23.9376 23.9059 23.9376 23.792 23.9376C24.1338 23.9376 24.7035 24.1653 24.8174 24.1653H24.9314C25.3871 24.2792 26.4125 24.9624 26.9822 25.304C27.8937 25.8734 28.8052 26.3288 29.7167 26.8982C31.6536 28.0369 33.5905 29.1756 35.4135 30.2004C37.8061 31.5669 40.1988 32.9333 42.3635 34.4136C43.8447 36.1217 41.3381 37.3743 40.0848 38.0575C35.7553 40.5627 31.4257 43.0678 27.0962 45.5729C25.7289 46.37 24.5896 47.1671 22.8805 47.1671C21.5133 47.1671 20.3739 46.8255 19.2346 46.1423C17.4116 45.1174 15.5886 43.9788 13.7657 42.9539C10.4615 41.0181 6.92953 39.1962 3.73933 37.0327C3.96721 37.1465 3.62538 36.9188 3.51145 36.9188C3.39751 36.9188 3.28356 36.6911 3.28356 36.6911C3.16962 36.5772 2.94177 36.3495 2.94177 36.2356C2.94177 36.1217 2.94177 35.894 2.94177 35.6662Z" fill="#FAFAFE"/>
<path id="Vector_4" opacity="0.097561" d="M3.73929 35.6662C3.85323 33.9582 6.47374 33.1611 7.6131 32.364C9.89181 30.9975 12.1705 29.745 14.4492 28.3785C16.1583 27.3537 17.9813 26.3288 19.6903 25.304C21.2854 24.3931 22.7665 23.4821 24.7035 23.9376C24.7035 23.9376 24.7034 23.9376 24.5895 23.9376C24.9313 23.9376 25.501 24.1653 25.6149 24.1653H25.7289C26.1846 24.2792 27.21 24.9624 27.7797 25.304C28.6912 25.8734 29.6027 26.3288 30.5142 26.8982C32.4511 28.0369 34.388 29.1756 36.211 30.2004C38.6036 31.5669 40.9962 32.9333 43.161 34.4136C44.6422 36.1217 42.1356 37.3743 40.8823 38.0575C36.5527 40.5627 32.2232 43.0678 27.8936 45.5729C26.5264 46.37 25.3871 47.1671 23.678 47.1671C22.3108 47.1671 21.1714 46.8255 20.0321 46.1423C18.2091 45.1174 16.3862 43.9788 14.5632 42.9539C11.259 41.0181 7.72702 39.1962 4.53682 37.0327C4.76469 37.1465 4.4229 36.9188 4.30897 36.9188C4.19503 36.9188 4.08108 36.6911 4.08108 36.6911C3.96715 36.5772 3.73929 36.3495 3.73929 36.2356C3.73929 36.1217 3.73929 35.894 3.73929 35.6662Z" fill="#F8F9FD"/>
<path id="Vector_5" opacity="0.122" d="M4.53686 35.6662C4.6508 33.9582 7.27131 33.1611 8.41067 32.364C10.6894 30.9975 12.9681 29.745 15.2468 28.3785C16.9558 27.3537 18.7788 26.3288 20.4879 25.304C22.083 24.3931 23.5641 23.4821 25.501 23.9376C25.501 23.9376 25.5011 23.9376 25.3871 23.9376C25.7289 23.9376 26.2986 24.1653 26.4125 24.1653H26.5265C26.9822 24.2792 28.0076 24.9624 28.5773 25.304C29.4888 25.8734 30.4003 26.3288 31.3118 26.8982C33.2487 28.0369 35.1856 29.1756 37.0085 30.2004C39.4012 31.5669 41.7939 32.9333 43.9586 34.4136C45.4398 36.1217 42.9332 37.3743 41.6799 38.0575C37.3504 40.5627 33.0208 43.0678 28.6912 45.5729C27.324 46.37 26.1846 47.1671 24.4756 47.1671C23.1084 47.1671 21.969 46.8255 20.8297 46.1423C19.0067 45.1174 17.1837 43.9788 15.3608 42.9539C12.0566 41.0181 8.52462 39.1962 5.33443 37.0327C5.5623 37.1465 5.22047 36.9188 5.10654 36.9188C4.9926 36.9188 4.87869 36.6911 4.87869 36.6911C4.76476 36.5772 4.53686 36.3495 4.53686 36.2356C4.53686 36.1217 4.53686 35.894 4.53686 35.6662Z" fill="#F6F7FD"/>
<path id="Vector_6" opacity="0.1463" d="M5.33447 35.6662C5.44841 33.9582 8.06892 33.1611 9.20827 32.364C11.487 30.9975 13.7657 29.745 16.0444 28.3785C17.7535 27.3537 19.5764 26.3288 21.2855 25.304C22.8806 24.3931 24.3617 23.4821 26.2986 23.9376C26.2986 23.9376 26.2986 23.9376 26.1847 23.9376C26.5265 23.9376 27.0962 24.1653 27.2101 24.1653H27.3241C27.7798 24.2792 28.8052 24.9624 29.3749 25.304C30.2864 25.8734 31.1979 26.3288 32.1094 26.8982C34.0463 28.0369 35.9832 29.1756 37.8062 30.2004C40.1988 31.5669 42.5915 32.9333 44.7562 34.4136C46.2374 36.1217 43.7308 37.3743 42.4775 38.0575C38.148 40.5627 33.8184 43.0678 29.4888 45.5729C28.1216 46.37 26.9823 47.1671 25.2732 47.1671C23.906 47.1671 22.7666 46.8255 21.6273 46.1423C19.8043 45.1174 17.9813 43.9788 16.1584 42.9539C12.8542 41.0181 9.3222 39.1962 6.132 37.0327C6.35987 37.1465 6.01808 36.9188 5.90415 36.9188C5.79021 36.9188 5.67626 36.6911 5.67626 36.6911C5.56232 36.5772 5.33447 36.3495 5.33447 36.2356C5.33447 36.1217 5.22053 35.894 5.33447 35.6662Z" fill="#F4F6FC"/>
<path id="Vector_7" opacity="0.1707" d="M6.0181 35.6662C6.13203 33.9582 8.75255 33.1611 9.89191 32.364C12.1706 30.9975 14.4493 29.745 16.728 28.3785C18.4371 27.3537 20.2601 26.3288 21.9691 25.304C23.5642 24.3931 25.0454 23.4821 26.9823 23.9376C26.9823 23.9376 26.9823 23.9376 26.8683 23.9376C27.2101 23.9376 27.7798 24.1653 27.8937 24.1653H28.0077C28.4634 24.2792 29.4888 24.9624 30.0585 25.304C30.97 25.8734 31.8815 26.3288 32.793 26.8982C34.7299 28.0369 36.6668 29.1756 38.4898 30.2004C40.8824 31.5669 43.2751 32.9333 45.4398 34.4136C46.921 36.1217 44.4144 37.3743 43.1611 38.0575C38.8316 40.5627 34.502 43.0678 30.1725 45.5729C28.8052 46.37 27.6659 47.1671 25.9568 47.1671C24.5896 47.1671 23.4502 46.8255 22.3109 46.1423C20.4879 45.1174 18.665 43.9788 16.842 42.9539C13.5379 41.0181 10.0058 39.1962 6.81563 37.0327C7.0435 37.1465 6.70171 36.9188 6.58778 36.9188C6.47384 36.9188 6.35989 36.6911 6.35989 36.6911C6.24596 36.5772 6.0181 36.3495 6.0181 36.2356C6.13203 36.1217 6.0181 35.894 6.0181 35.6662Z" fill="#F3F4FC"/>
<path id="Vector_8" opacity="0.1951" d="M6.81555 35.6662C6.92949 33.9582 9.55 33.1611 10.6894 32.364C12.9681 30.9975 15.2468 29.745 17.5255 28.3785C19.2345 27.3537 21.0575 26.3288 22.7665 25.304C24.3616 24.3931 25.8428 23.4821 27.7797 23.9376C27.7797 23.9376 27.7797 23.9376 27.6658 23.9376C28.0076 23.9376 28.5773 24.1653 28.6912 24.1653H28.8052C29.2609 24.2792 30.2863 24.9624 30.856 25.304C31.7675 25.8734 32.679 26.3288 33.5904 26.8982C35.5274 28.0369 37.4643 29.1756 39.2872 30.2004C41.6799 31.5669 44.0725 32.9333 46.2373 34.4136C47.7185 36.1217 45.2119 37.3743 43.9586 38.0575C39.629 40.5627 35.2995 43.0678 30.9699 45.5729C29.6027 46.37 28.4633 47.1671 26.7543 47.1671C25.3871 47.1671 24.2477 46.8255 23.1084 46.1423C21.2854 45.1174 19.4624 43.9788 17.6394 42.9539C14.3353 41.0181 10.8033 39.1962 7.61311 37.0327C7.84098 37.1465 7.49916 36.9188 7.38523 36.9188C7.27129 36.9188 7.15738 36.6911 7.15738 36.6911C7.04344 36.5772 6.81555 36.3495 6.81555 36.2356C6.92949 36.1217 6.81555 35.894 6.81555 35.6662Z" fill="#F1F3FB"/>
<path id="Vector_9" opacity="0.2195" d="M7.61316 35.6662C7.72709 33.9582 10.3476 33.1611 11.487 32.364C13.7657 30.9975 16.0444 29.745 18.3231 28.3785C20.0321 27.3537 21.8551 26.3288 23.5642 25.304C25.1593 24.3931 26.6404 23.4821 28.5773 23.9376C28.5773 23.9376 28.5773 23.9376 28.4634 23.9376C28.8052 23.9376 29.3749 24.1653 29.4888 24.1653H29.6027C30.0585 24.2792 31.0839 24.9624 31.6536 25.304C32.5651 25.8734 33.4766 26.3288 34.3881 26.8982C36.325 28.0369 38.2619 29.1756 40.0848 30.2004C42.4775 31.5669 44.8701 32.9333 47.0349 34.4136C48.5161 36.1217 46.0095 37.3743 44.7562 38.0575C40.4267 40.5627 36.0971 43.0678 31.7675 45.5729C30.4003 46.37 29.2609 47.1671 27.5519 47.1671C26.1847 47.1671 25.0453 46.8255 23.9059 46.1423C22.083 45.1174 20.26 43.9788 18.437 42.9539C15.1329 41.0181 11.6009 39.1962 8.41068 37.0327C8.63856 37.1465 8.29677 36.9188 8.18283 36.9188C8.0689 36.9188 7.95495 36.6911 7.95495 36.6911C7.84101 36.5772 7.61316 36.3495 7.61316 36.2356C7.72709 36.1217 7.61316 35.894 7.61316 35.6662Z" fill="#EFF1FB"/>
<path id="Vector_10" opacity="0.2439" d="M8.41064 35.6662C8.52458 33.9582 11.1451 33.1611 12.2845 32.364C14.5632 30.9975 16.8419 29.745 19.1206 28.3785C20.8297 27.3537 22.6526 26.3288 24.3616 25.304C25.9567 24.3931 27.4379 23.4821 29.3748 23.9376C29.3748 23.9376 29.3748 23.9376 29.2609 23.9376C29.6027 23.9376 30.1724 24.1653 30.2863 24.1653H30.4003C30.856 24.2792 31.8814 24.9624 32.4511 25.304C33.3626 25.8734 34.2741 26.3288 35.1855 26.8982C37.1224 28.0369 39.0594 29.1756 40.8823 30.2004C43.275 31.5669 45.6676 32.9333 47.8324 34.4136C49.3136 36.1217 46.807 37.3743 45.5537 38.0575C41.2241 40.5627 36.8946 43.0678 32.565 45.5729C31.1978 46.37 30.0584 47.1671 28.3494 47.1671C26.9822 47.1671 25.8428 46.8255 24.7035 46.1423C22.8805 45.1174 21.0575 43.9788 19.2345 42.9539C15.9304 41.0181 12.3984 39.1962 9.20821 37.0327C9.43608 37.1465 9.09425 36.9188 8.98032 36.9188C8.86638 36.9188 8.75247 36.6911 8.75247 36.6911C8.63853 36.5772 8.41064 36.3495 8.41064 36.2356C8.52458 36.1217 8.41064 35.894 8.41064 35.6662Z" fill="#EDF0FA"/>
<path id="Vector_11" opacity="0.2683" d="M9.20825 35.6662C9.32219 33.9582 11.9427 33.1611 13.0821 32.364C15.3608 30.9975 17.6395 29.745 19.9182 28.3785C21.6272 27.3537 23.4502 26.3288 25.1592 25.304C26.7543 24.3931 28.2355 23.4821 30.1724 23.9376C30.1724 23.9376 30.1724 23.9376 30.0585 23.9376C30.4003 23.9376 30.97 24.1653 31.0839 24.1653H31.1978C31.6536 24.2792 32.679 24.9624 33.2487 25.304C34.1602 25.8734 35.0717 26.3288 35.9831 26.8982C37.9201 28.0369 39.857 29.1756 41.6799 30.2004C44.0726 31.5669 46.4652 32.9333 48.63 34.4136C50.1112 36.1217 47.6046 37.3743 46.3513 38.0575C42.0217 40.5627 37.6922 43.0678 33.3626 45.5729C31.9954 46.37 30.856 47.1671 29.147 47.1671C27.7798 47.1671 26.6404 46.8255 25.501 46.1423C23.6781 45.1174 21.8551 43.9788 20.0321 42.9539C16.728 41.0181 13.196 39.1962 10.0058 37.0327C10.2337 37.1465 9.89186 36.9188 9.77793 36.9188C9.66399 36.9188 9.55004 36.6911 9.55004 36.6911C9.4361 36.5772 9.20825 36.3495 9.20825 36.2356C9.32219 36.1217 9.20825 35.894 9.20825 35.6662Z" fill="#ECEEFA"/>
<path id="Vector_12" opacity="0.2927" d="M10.0058 35.6662C10.1197 33.9582 12.7402 33.1611 13.8796 32.364C16.1583 30.9975 18.437 29.745 20.7157 28.3785C22.4248 27.3537 24.2477 26.3288 25.9568 25.304C27.5519 24.3931 29.033 23.4821 30.9699 23.9376C30.9699 23.9376 30.9699 23.9376 30.856 23.9376C31.1978 23.9376 31.7675 24.1653 31.8814 24.1653H31.9953C32.4511 24.2792 33.4765 24.9624 34.0462 25.304C34.9577 25.8734 35.8692 26.3288 36.7807 26.8982C38.7176 28.0369 40.6545 29.1756 42.4774 30.2004C44.8701 31.5669 47.2627 32.9333 49.4275 34.4136C50.9087 36.1217 48.4021 37.3743 47.1488 38.0575C42.8192 40.5627 38.4897 43.0678 34.1601 45.5729C32.7929 46.37 31.6536 47.1671 29.9445 47.1671C28.5773 47.1671 27.4379 46.8255 26.2986 46.1423C24.4756 45.1174 22.6526 43.9788 20.8297 42.9539C17.5255 41.0181 13.9935 39.1962 10.8033 37.0327C11.0312 37.1465 10.6894 36.9188 10.5754 36.9188C10.4615 36.9188 10.3476 36.6911 10.3476 36.6911C10.2336 36.5772 10.0058 36.3495 10.0058 36.2356C10.0058 36.1217 10.0058 35.894 10.0058 35.6662Z" fill="#EAEDF9"/>
<path id="Vector_13" opacity="0.3171" d="M10.8033 35.6662C10.9173 33.9582 13.5378 33.1611 14.6771 32.364C16.9559 30.9975 19.2346 29.745 21.5133 28.3785C23.2223 27.3537 25.0453 26.3288 26.7543 25.304C28.3494 24.3931 29.8306 23.4821 31.7675 23.9376C31.7675 23.9376 31.7675 23.9376 31.6536 23.9376C31.9954 23.9376 32.5651 24.1653 32.679 24.1653H32.793C33.2487 24.2792 34.2741 24.9624 34.8438 25.304C35.7553 25.8734 36.6668 26.3288 37.5782 26.8982C39.5151 28.0369 41.4521 29.1756 43.275 30.2004C45.6677 31.5669 48.0603 32.9333 50.2251 34.4136C51.7063 36.1217 49.1997 37.3743 47.9464 38.0575C43.6168 40.5627 39.2873 43.0678 34.9577 45.5729C33.5905 46.37 32.4511 47.1671 30.7421 47.1671C29.3749 47.1671 28.2355 46.8255 27.0962 46.1423C25.2732 45.1174 23.4502 43.9788 21.6272 42.9539C18.3231 41.0181 14.7911 39.1962 11.6009 37.0327C11.8288 37.1465 11.487 36.9188 11.373 36.9188C11.2591 36.9188 11.1452 36.6911 11.1452 36.6911C11.0312 36.5772 10.8033 36.3495 10.8033 36.2356C10.8033 36.1217 10.8033 35.894 10.8033 35.6662Z" fill="#E8EBF9"/>
<path id="Vector_14" opacity="0.3415" d="M11.6009 35.6662C11.7149 33.9582 14.3354 33.1611 15.4748 32.364C17.7535 30.9975 20.0322 29.745 22.3109 28.3785C24.0199 27.3537 25.8429 26.3288 27.5519 25.304C29.147 24.3931 30.6282 23.4821 32.5651 23.9376C32.5651 23.9376 32.5651 23.9376 32.4512 23.9376C32.793 23.9376 33.3627 24.1653 33.4766 24.1653H33.5905C34.0463 24.2792 35.0717 24.9624 35.6414 25.304C36.5529 25.8734 37.4644 26.3288 38.3758 26.8982C40.3128 28.0369 42.2497 29.1756 44.0726 30.2004C46.4653 31.5669 48.8579 32.9333 51.0227 34.4136C52.5039 36.1217 49.9973 37.3743 48.744 38.0575C44.4144 40.5627 40.0849 43.0678 35.7553 45.5729C34.3881 46.37 33.2487 47.1671 31.5397 47.1671C30.1725 47.1671 29.0331 46.8255 27.8937 46.1423C26.0708 45.1174 24.2478 43.9788 22.4248 42.9539C19.1207 41.0181 15.5887 39.1962 12.3985 37.0327C12.6264 37.1465 12.2846 36.9188 12.1706 36.9188C12.0567 36.9188 11.9427 36.6911 11.9427 36.6911C11.8288 36.5772 11.6009 36.3495 11.6009 36.2356C11.6009 36.1217 11.6009 35.894 11.6009 35.6662Z" fill="#E6E9F8"/>
<path id="Vector_15" opacity="0.3659" d="M12.3984 35.6662C12.5124 33.9582 15.1329 33.1611 16.2723 32.364C18.551 30.9975 20.8297 29.745 23.1084 28.3785C24.8175 27.3537 26.6404 26.3288 28.3494 25.304C29.9445 24.3931 31.4257 23.4821 33.3626 23.9376C33.3626 23.9376 33.3626 23.9376 33.2487 23.9376C33.5905 23.9376 34.1602 24.1653 34.2741 24.1653H34.3881C34.8438 24.2792 35.8692 24.9624 36.4389 25.304C37.3504 25.8734 38.2618 26.3288 39.1733 26.8982C41.1102 28.0369 43.0471 29.1756 44.8701 30.2004C47.2628 31.5669 49.6554 32.9333 51.8202 34.4136C53.3014 36.1217 50.7948 37.3743 49.5415 38.0575C45.2119 40.5627 40.8824 43.0678 36.5528 45.5729C35.1856 46.37 34.0462 47.1671 32.3372 47.1671C30.97 47.1671 29.8306 46.8255 28.6913 46.1423C26.8683 45.1174 25.0453 43.9788 23.2223 42.9539C19.9182 41.0181 16.3862 39.1962 13.196 37.0327C13.4239 37.1465 13.082 36.9188 12.9681 36.9188C12.8542 36.9188 12.7403 36.6911 12.7403 36.6911C12.6263 36.5772 12.3984 36.3495 12.3984 36.2356C12.3984 36.1217 12.3984 35.894 12.3984 35.6662Z" fill="#E5E8F8"/>
<path id="Vector_16" opacity="0.3902" d="M13.196 35.6662C13.31 33.9582 15.9305 33.1611 17.0698 32.364C19.3486 30.9975 21.6273 29.745 23.906 28.3785C25.615 27.3537 27.438 26.3288 29.147 25.304C30.7421 24.3931 32.2233 23.4821 34.1602 23.9376C34.1602 23.9376 34.1602 23.9376 34.0463 23.9376C34.3881 23.9376 34.9578 24.1653 35.0717 24.1653H35.1856C35.6414 24.2792 36.6668 24.9624 37.2365 25.304C38.148 25.8734 39.0595 26.3288 39.9709 26.8982C41.9078 28.0369 43.8448 29.1756 45.6677 30.2004C48.0604 31.5669 50.453 32.9333 52.6178 34.4136C54.099 36.1217 51.5924 37.3743 50.3391 38.0575C46.0095 40.5627 41.68 43.0678 37.3504 45.5729C35.9832 46.37 34.8438 47.1671 33.1348 47.1671C31.7676 47.1671 30.6282 46.8255 29.4888 46.1423C27.6659 45.1174 25.8429 43.9788 24.0199 42.9539C20.7158 41.0181 17.1838 39.1962 13.9936 37.0327C14.2215 37.1465 13.8797 36.9188 13.7657 36.9188C13.6518 36.9188 13.5378 36.6911 13.5378 36.6911C13.4239 36.5772 13.196 36.3495 13.196 36.2356C13.196 36.1217 13.196 35.894 13.196 35.6662Z" fill="#E3E6F7"/>
<path id="Vector_17" opacity="0.4146" d="M13.9936 35.6662C14.1075 33.9582 16.728 33.1611 17.8674 32.364C20.1461 30.9975 22.4248 29.745 24.7035 28.3785C26.4125 27.3537 28.2355 26.3288 29.9446 25.304C31.5397 24.3931 33.0208 23.4821 34.9577 23.9376C34.9577 23.9376 34.9577 23.9376 34.8438 23.9376C35.1856 23.9376 35.7553 24.1653 35.8692 24.1653H35.9831C36.4389 24.2792 37.4643 24.9624 38.034 25.304C38.9455 25.8734 39.857 26.3288 40.7685 26.8982C42.7054 28.0369 44.6423 29.1756 46.4652 30.2004C48.8579 31.5669 51.2505 32.9333 53.4153 34.4136C54.8965 36.1217 52.3899 37.3743 51.1366 38.0575C46.807 40.5627 42.4775 43.0678 38.1479 45.5729C36.7807 46.37 35.6413 47.1671 33.9323 47.1671C32.5651 47.1671 31.4257 46.8255 30.2864 46.1423C28.4634 45.1174 26.6404 43.9788 24.8175 42.9539C21.5133 41.0181 17.9813 39.1962 14.7911 37.0327C15.019 37.1465 14.6772 36.9188 14.5632 36.9188C14.4493 36.9188 14.3354 36.6911 14.3354 36.6911C14.2214 36.5772 13.9936 36.3495 13.9936 36.2356C13.9936 36.1217 13.9936 35.894 13.9936 35.6662Z" fill="#E1E5F7"/>
<path id="Vector_18" opacity="0.439" d="M14.6771 35.6662C14.7911 33.9582 17.4116 33.1611 18.551 32.364C20.8297 30.9975 23.1084 29.745 25.3871 28.3785C27.0961 27.3537 28.9191 26.3288 30.6281 25.304C32.2232 24.3931 33.7044 23.4821 35.6413 23.9376C35.6413 23.9376 35.6413 23.9376 35.5274 23.9376C35.8692 23.9376 36.4389 24.1653 36.5528 24.1653H36.6667C37.1225 24.2792 38.1479 24.9624 38.7176 25.304C39.6291 25.8734 40.5405 26.3288 41.452 26.8982C43.3889 28.0369 45.3258 29.1756 47.1488 30.2004C49.5415 31.5669 51.9341 32.9333 54.0989 34.4136C55.5801 36.1217 53.0735 37.3743 51.8202 38.0575C47.4906 40.5627 43.1611 43.0678 38.8315 45.5729C37.4643 46.37 36.3249 47.1671 34.6159 47.1671C33.2486 47.1671 32.1093 46.8255 30.9699 46.1423C29.147 45.1174 27.324 43.9788 25.501 42.9539C22.1969 41.0181 18.6649 39.1962 15.4747 37.0327C15.7026 37.1465 15.3607 36.9188 15.2468 36.9188C15.1329 36.9188 15.0189 36.6911 15.0189 36.6911C14.905 36.5772 14.6771 36.3495 14.6771 36.2356C14.7911 36.1217 14.6771 35.894 14.6771 35.6662Z" fill="#DFE3F6"/>
<path id="Vector_19" opacity="0.4634" d="M15.4747 35.6662C15.5887 33.9582 18.2092 33.1611 19.3485 32.364C21.6273 30.9975 23.906 29.745 26.1847 28.3785C27.8937 27.3537 29.7167 26.3288 31.4257 25.304C33.0208 24.3931 34.502 23.4821 36.4389 23.9376C36.4389 23.9376 36.4389 23.9376 36.325 23.9376C36.6668 23.9376 37.2365 24.1653 37.3504 24.1653H37.4643C37.9201 24.2792 38.9455 24.9624 39.5152 25.304C40.4267 25.8734 41.3381 26.3288 42.2496 26.8982C44.1865 28.0369 46.1234 29.1756 47.9464 30.2004C50.3391 31.5669 52.7317 32.9333 54.8965 34.4136C56.3777 36.1217 53.8711 37.3743 52.6178 38.0575C48.2882 40.5627 43.9587 43.0678 39.6291 45.5729C38.2619 46.37 37.1225 47.1671 35.4135 47.1671C34.0462 47.1671 32.9069 46.8255 31.7675 46.1423C29.9445 45.1174 28.1216 43.9788 26.2986 42.9539C22.9945 41.0181 19.4625 39.1962 16.2723 37.0327C16.5002 37.1465 16.1583 36.9188 16.0444 36.9188C15.9305 36.9188 15.8165 36.6911 15.8165 36.6911C15.7026 36.5772 15.4747 36.3495 15.4747 36.2356C15.5887 36.1217 15.4747 35.894 15.4747 35.6662Z" fill="#DEE2F6"/>
<path id="Vector_20" opacity="0.4878" d="M16.2722 35.6662C16.3862 33.9582 19.0067 33.1611 20.1461 32.364C22.4248 30.9975 24.7035 29.745 26.9822 28.3785C28.6912 27.3537 30.5142 26.3288 32.2232 25.304C33.8183 24.3931 35.2995 23.4821 37.2364 23.9376C37.2364 23.9376 37.2364 23.9376 37.1225 23.9376C37.4643 23.9376 38.034 24.1653 38.1479 24.1653H38.2618C38.7176 24.2792 39.743 24.9624 40.3127 25.304C41.2241 25.8734 42.1357 26.3288 43.0471 26.8982C44.9841 28.0369 46.921 29.1756 48.7439 30.2004C51.1366 31.5669 53.5292 32.9333 55.694 34.4136C57.1751 36.1217 54.6686 37.3743 53.4153 38.0575C49.0857 40.5627 44.7562 43.0678 40.4266 45.5729C39.0594 46.37 37.92 47.1671 36.211 47.1671C34.8438 47.1671 33.7044 46.8255 32.565 46.1423C30.7421 45.1174 28.9191 43.9788 27.0961 42.9539C23.792 41.0181 20.26 39.1962 17.0698 37.0327C17.2976 37.1465 16.9559 36.9188 16.8419 36.9188C16.728 36.9188 16.614 36.6911 16.614 36.6911C16.5001 36.5772 16.2722 36.3495 16.2722 36.2356C16.3862 36.1217 16.2722 35.894 16.2722 35.6662Z" fill="#DCE0F5"/>
<path id="Vector_21" opacity="0.5122" d="M17.0698 35.6662C17.1838 33.9582 19.8043 33.1611 20.9436 32.364C23.2223 30.9975 25.5011 29.745 27.7798 28.3785C29.4888 27.3537 31.3118 26.3288 33.0208 25.304C34.6159 24.3931 36.0971 23.4821 38.034 23.9376C38.034 23.9376 38.034 23.9376 37.9201 23.9376C38.2619 23.9376 38.8316 24.1653 38.9455 24.1653H39.0594C39.5152 24.2792 40.5406 24.9624 41.1103 25.304C42.0218 25.8734 42.9332 26.3288 43.8447 26.8982C45.7816 28.0369 47.7185 29.1756 49.5415 30.2004C51.9342 31.5669 54.3268 32.9333 56.4916 34.4136C57.9728 36.1217 55.4662 37.3743 54.2129 38.0575C49.8833 40.5627 45.5538 43.0678 41.2242 45.5729C39.857 46.37 38.7176 47.1671 37.0086 47.1671C35.6413 47.1671 34.502 46.8255 33.3626 46.1423C31.5397 45.1174 29.7167 43.9788 27.8937 42.9539C24.5896 41.0181 21.0576 39.1962 17.8674 37.0327C18.0953 37.1465 17.7534 36.9188 17.6395 36.9188C17.5256 36.9188 17.4116 36.6911 17.4116 36.6911C17.2977 36.5772 17.0698 36.3495 17.0698 36.2356C17.1838 36.1217 17.0698 35.894 17.0698 35.6662Z" fill="#DADFF5"/>
<path id="Vector_22" opacity="0.5366" d="M17.8673 35.6662C17.9812 33.9582 20.6018 33.1611 21.7411 32.364C24.0198 30.9975 26.2985 29.745 28.5773 28.3785C30.2863 27.3537 32.1093 26.3288 33.8183 25.304C35.4134 24.3931 36.8946 23.4821 38.8315 23.9376C38.8315 23.9376 38.8315 23.9376 38.7175 23.9376C39.0593 23.9376 39.629 24.1653 39.7429 24.1653H39.8569C40.3126 24.2792 41.3381 24.9624 41.9078 25.304C42.8192 25.8734 43.7307 26.3288 44.6422 26.8982C46.5791 28.0369 48.516 29.1756 50.339 30.2004C52.7316 31.5669 55.1243 32.9333 57.2891 34.4136C58.7702 36.1217 56.2637 37.3743 55.0104 38.0575C50.6808 40.5627 46.3512 43.0678 42.0217 45.5729C40.6544 46.37 39.5151 47.1671 37.8061 47.1671C36.4388 47.1671 35.2995 46.8255 34.1601 46.1423C32.3371 45.1174 30.5142 43.9788 28.6912 42.9539C25.3871 41.0181 21.855 39.1962 18.6648 37.0327C18.8927 37.1465 18.5509 36.9188 18.437 36.9188C18.323 36.9188 18.2091 36.6911 18.2091 36.6911C18.0952 36.5772 17.8673 36.3495 17.8673 36.2356C17.9812 36.1217 17.8673 35.894 17.8673 35.6662Z" fill="#D8DDF4"/>
<path id="Vector_23" opacity="0.561" d="M18.6649 35.6662C18.7789 33.9582 21.3994 33.1611 22.5388 32.364C24.8175 30.9975 27.0962 29.745 29.3749 28.3785C31.0839 27.3537 32.9069 26.3288 34.6159 25.304C36.211 24.3931 37.6922 23.4821 39.6291 23.9376C39.6291 23.9376 39.6291 23.9376 39.5152 23.9376C39.857 23.9376 40.4267 24.1653 40.5406 24.1653H40.6545C41.1103 24.2792 42.1357 24.9624 42.7054 25.304C43.6168 25.8734 44.5283 26.3288 45.4398 26.8982C47.3767 28.0369 49.3136 29.1756 51.1366 30.2004C53.5292 31.5669 55.9219 32.9333 58.0867 34.4136C59.5678 36.1217 57.0613 37.3743 55.808 38.0575C51.4784 40.5627 47.1489 43.0678 42.8193 45.5729C41.4521 46.37 40.3127 47.1671 38.6037 47.1671C37.2364 47.1671 36.0971 46.8255 34.9577 46.1423C33.1348 45.1174 31.3118 43.9788 29.4888 42.9539C26.1847 41.0181 22.6527 39.1962 19.4625 37.0327C19.6903 37.1465 19.3485 36.9188 19.2346 36.9188C19.1207 36.9188 19.0067 36.6911 19.0067 36.6911C18.8928 36.5772 18.6649 36.3495 18.6649 36.2356C18.7789 36.1217 18.6649 35.894 18.6649 35.6662Z" fill="#D7DCF4"/>
<path id="Vector_24" opacity="0.5854" d="M19.4624 35.6662C19.5763 33.9582 22.1968 33.1611 23.3362 32.364C25.6149 30.9975 27.8936 29.745 30.1723 28.3785C31.8814 27.3537 33.7044 26.3288 35.4134 25.304C37.0085 24.3931 38.4897 23.4821 40.4266 23.9376C40.4266 23.9376 40.4266 23.9376 40.3126 23.9376C40.6544 23.9376 41.2241 24.1653 41.3381 24.1653H41.452C41.9077 24.2792 42.9332 24.9624 43.5028 25.304C44.4143 25.8734 45.3258 26.3288 46.2373 26.8982C48.1742 28.0369 50.1111 29.1756 51.9341 30.2004C54.3267 31.5669 56.7194 32.9333 58.8842 34.4136C60.3653 36.1217 57.8587 37.3743 56.6055 38.0575C52.2759 40.5627 47.9463 43.0678 43.6168 45.5729C42.2496 46.37 41.1102 47.1671 39.4011 47.1671C38.0339 47.1671 36.8946 46.8255 35.7552 46.1423C33.9322 45.1174 32.1093 43.9788 30.2863 42.9539C26.9822 41.0181 23.4502 39.1962 20.26 37.0327C20.4878 37.1465 20.146 36.9188 20.0321 36.9188C19.9181 36.9188 19.8042 36.6911 19.8042 36.6911C19.6903 36.5772 19.4624 36.3495 19.4624 36.2356C19.4624 36.1217 19.4624 35.894 19.4624 35.6662Z" fill="#D5DAF3"/>
<path id="Vector_25" opacity="0.6098" d="M20.26 35.6662C20.374 33.9582 22.9945 33.1611 24.1339 32.364C26.4126 30.9975 28.6913 29.745 30.97 28.3785C32.679 27.3537 34.502 26.3288 36.211 25.304C37.8061 24.3931 39.2873 23.4821 41.2242 23.9376C41.2242 23.9376 41.2242 23.9376 41.1103 23.9376C41.4521 23.9376 42.0217 24.1653 42.1357 24.1653H42.2496C42.7054 24.2792 43.7308 24.9624 44.3005 25.304C45.2119 25.8734 46.1235 26.3288 47.0349 26.8982C48.9718 28.0369 50.9088 29.1756 52.7317 30.2004C55.1244 31.5669 57.517 32.9333 59.6818 34.4136C61.1629 36.1217 58.6564 37.3743 57.4031 38.0575C53.0735 40.5627 48.744 43.0678 44.4144 45.5729C43.0472 46.37 41.9078 47.1671 40.1988 47.1671C38.8316 47.1671 37.6922 46.8255 36.5528 46.1423C34.7299 45.1174 32.9069 43.9788 31.0839 42.9539C27.7798 41.0181 24.2478 39.1962 21.0576 37.0327C21.2854 37.1465 20.9437 36.9188 20.8297 36.9188C20.7158 36.9188 20.6018 36.6911 20.6018 36.6911C20.4879 36.5772 20.26 36.3495 20.26 36.2356C20.26 36.1217 20.26 35.894 20.26 35.6662Z" fill="#D3D9F3"/>
<path id="Vector_26" opacity="0.6341" d="M21.0575 35.6662C21.1714 33.9582 23.7919 33.1611 24.9313 32.364C27.21 30.9975 29.4887 29.745 31.7674 28.3785C33.4765 27.3537 35.2995 26.3288 37.0085 25.304C38.6036 24.3931 40.0847 23.4821 42.0217 23.9376C42.0217 23.9376 42.0217 23.9376 41.9077 23.9376C42.2496 23.9376 42.8192 24.1653 42.9332 24.1653H43.0471C43.5028 24.2792 44.5283 24.9624 45.0979 25.304C46.0094 25.8734 46.9209 26.3288 47.8324 26.8982C49.7693 28.0369 51.7062 29.1756 53.5292 30.2004C55.9218 31.5669 58.3145 32.9333 60.4793 34.4136C61.9604 36.1217 59.4538 37.3743 58.2005 38.0575C53.871 40.5627 49.5414 43.0678 45.2119 45.5729C43.8447 46.37 42.7053 47.1671 40.9962 47.1671C39.629 47.1671 38.4897 46.8255 37.3503 46.1423C35.5273 45.1174 33.7044 43.9788 31.8814 42.9539C28.5772 41.0181 25.0453 39.1962 21.8551 37.0327C22.0829 37.1465 21.7411 36.9188 21.6272 36.9188C21.5132 36.9188 21.3993 36.6911 21.3993 36.6911C21.2854 36.5772 21.0575 36.3495 21.0575 36.2356C21.0575 36.1217 21.0575 35.894 21.0575 35.6662Z" fill="#D1D7F2"/>
<path id="Vector_27" opacity="0.6585" d="M21.8551 35.6662C21.969 33.9582 24.5896 33.1611 25.7289 32.364C28.0076 30.9975 30.2863 29.745 32.5651 28.3785C34.2741 27.3537 36.0971 26.3288 37.8061 25.304C39.4012 24.3931 40.8824 23.4821 42.8193 23.9376C42.8193 23.9376 42.8193 23.9376 42.7053 23.9376C43.0471 23.9376 43.6168 24.1653 43.7307 24.1653H43.8447C44.3004 24.2792 45.3259 24.9624 45.8955 25.304C46.807 25.8734 47.7185 26.3288 48.63 26.8982C50.5669 28.0369 52.5038 29.1756 54.3268 30.2004C56.7194 31.5669 59.1121 32.9333 61.2769 34.4136C62.758 36.1217 60.2514 37.3743 58.9982 38.0575C54.6686 40.5627 50.339 43.0678 46.0095 45.5729C44.6422 46.37 43.5029 47.1671 41.7938 47.1671C40.4266 47.1671 39.2873 46.8255 38.1479 46.1423C36.3249 45.1174 34.502 43.9788 32.679 42.9539C29.3749 41.0181 25.8428 39.1962 22.6526 37.0327C22.8805 37.1465 22.5387 36.9188 22.4248 36.9188C22.3108 36.9188 22.1969 36.6911 22.1969 36.6911C22.083 36.5772 21.8551 36.3495 21.8551 36.2356C21.8551 36.1217 21.8551 35.894 21.8551 35.6662Z" fill="#D0D6F2"/>
<path id="Vector_28" opacity="0.6829" d="M22.6526 35.6662C22.7665 33.9582 25.3871 33.1611 26.5264 32.364C28.8051 30.9975 31.0839 29.745 33.3626 28.3785C35.0716 27.3537 36.8945 26.3288 38.6036 25.304C40.1987 24.3931 41.6799 23.4821 43.6168 23.9376C43.6168 23.9376 43.6168 23.9376 43.5028 23.9376C43.8446 23.9376 44.4143 24.1653 44.5283 24.1653H44.6422C45.0979 24.2792 46.1234 24.9624 46.693 25.304C47.6045 25.8734 48.516 26.3288 49.4275 26.8982C51.3644 28.0369 53.3013 29.1756 55.1243 30.2004C57.5169 31.5669 59.9096 32.9333 62.0744 34.4136C63.5555 36.1217 61.0489 37.3743 59.7956 38.0575C55.4661 40.5627 51.1365 43.0678 46.807 45.5729C45.4397 46.37 44.3004 47.1671 42.5913 47.1671C41.2241 47.1671 40.0848 46.8255 38.9454 46.1423C37.1224 45.1174 35.2994 43.9788 33.4765 42.9539C30.1723 41.0181 26.6403 39.1962 23.4501 37.0327C23.678 37.1465 23.3362 36.9188 23.2223 36.9188C23.1083 36.9188 22.9944 36.6911 22.9944 36.6911C22.8805 36.5772 22.6526 36.3495 22.6526 36.2356C22.6526 36.1217 22.6526 35.894 22.6526 35.6662Z" fill="#CED4F1"/>
<path id="Vector_29" opacity="0.7073" d="M23.4502 35.6662C23.5641 33.9582 26.1846 33.1611 27.324 32.364C29.6027 30.9975 31.8814 29.745 34.1601 28.3785C35.8692 27.3537 37.6922 26.3288 39.4012 25.304C40.9963 24.3931 42.4774 23.4821 44.4144 23.9376C44.4144 23.9376 44.4144 23.9376 44.3004 23.9376C44.6422 23.9376 45.2119 24.1653 45.3259 24.1653H45.4398C45.8955 24.2792 46.921 24.9624 47.4906 25.304C48.4021 25.8734 49.3136 26.3288 50.2251 26.8982C52.162 28.0369 54.0989 29.1756 55.9219 30.2004C58.3145 31.5669 60.7072 32.9333 62.872 34.4136C64.3531 36.1217 61.8465 37.3743 60.5932 38.0575C56.2637 40.5627 51.9341 43.0678 47.6046 45.5729C46.2374 46.37 45.098 47.1671 43.3889 47.1671C42.0217 47.1671 40.8823 46.8255 39.743 46.1423C37.92 45.1174 36.0971 43.9788 34.2741 42.9539C30.9699 41.0181 27.438 39.1962 24.2478 37.0327C24.4756 37.1465 24.1338 36.9188 24.0199 36.9188C23.9059 36.9188 23.792 36.6911 23.792 36.6911C23.678 36.5772 23.4502 36.3495 23.4502 36.2356C23.4502 36.1217 23.3363 35.894 23.4502 35.6662Z" fill="#CCD2F1"/>
<path id="Vector_30" opacity="0.7317" d="M24.1338 35.6662C24.2477 33.9582 26.8682 33.1611 28.0076 32.364C30.2863 30.9975 32.565 29.745 34.8437 28.3785C36.5528 27.3537 38.3757 26.3288 40.0848 25.304C41.6799 24.3931 43.161 23.4821 45.098 23.9376C45.098 23.9376 45.0979 23.9376 44.984 23.9376C45.3258 23.9376 45.8955 24.1653 46.0094 24.1653H46.1234C46.5791 24.2792 47.6046 24.9624 48.1742 25.304C49.0857 25.8734 49.9972 26.3288 50.9087 26.8982C52.8456 28.0369 54.7825 29.1756 56.6055 30.2004C58.9981 31.5669 61.3908 32.9333 63.5556 34.4136C65.0367 36.1217 62.5301 37.3743 61.2768 38.0575C56.9473 40.5627 52.6177 43.0678 48.2881 45.5729C46.9209 46.37 45.7816 47.1671 44.0725 47.1671C42.7053 47.1671 41.5659 46.8255 40.4266 46.1423C38.6036 45.1174 36.7807 43.9788 34.9577 42.9539C31.6535 41.0181 28.1215 39.1962 24.9313 37.0327C25.1592 37.1465 24.8174 36.9188 24.7035 36.9188C24.5895 36.9188 24.4756 36.6911 24.4756 36.6911C24.3616 36.5772 24.1338 36.3495 24.1338 36.2356C24.2477 36.1217 24.1338 35.894 24.1338 35.6662Z" fill="#CAD1F0"/>
<path id="Vector_31" opacity="0.7561" d="M24.9314 35.6662C25.0453 33.9582 27.6659 33.1611 28.8052 32.364C31.084 30.9975 33.3627 29.745 35.6414 28.3785C37.3504 27.3537 39.1734 26.3288 40.8824 25.304C42.4775 24.3931 43.9587 23.4821 45.8956 23.9376C45.8956 23.9376 45.8956 23.9376 45.7817 23.9376C46.1235 23.9376 46.6931 24.1653 46.8071 24.1653H46.921C47.3768 24.2792 48.4022 24.9624 48.9718 25.304C49.8833 25.8734 50.7948 26.3288 51.7063 26.8982C53.6432 28.0369 55.5801 29.1756 57.4031 30.2004C59.7957 31.5669 62.1884 32.9333 64.3532 34.4136C65.8343 36.1217 63.3277 37.3743 62.0744 38.0575C57.7449 40.5627 53.4153 43.0678 49.0858 45.5729C47.7186 46.37 46.5792 47.1671 44.8701 47.1671C43.5029 47.1671 42.3636 46.8255 41.2242 46.1423C39.4013 45.1174 37.5783 43.9788 35.7553 42.9539C32.4511 41.0181 28.9192 39.1962 25.729 37.0327C25.9568 37.1465 25.615 36.9188 25.5011 36.9188C25.3871 36.9188 25.2732 36.6911 25.2732 36.6911C25.1593 36.5772 24.9314 36.3495 24.9314 36.2356C25.0453 36.1217 24.9314 35.894 24.9314 35.6662Z" fill="#C9CFF0"/>
<path id="Vector_32" opacity="0.7805" d="M25.7289 35.6662C25.8428 33.9582 28.4633 33.1611 29.6027 32.364C31.8814 30.9975 34.1601 29.745 36.4388 28.3785C38.1479 27.3537 39.9708 26.3288 41.6799 25.304C43.275 24.3931 44.7561 23.4821 46.693 23.9376C46.693 23.9376 46.693 23.9376 46.5791 23.9376C46.9209 23.9376 47.4906 24.1653 47.6046 24.1653H47.7185C48.1742 24.2792 49.1996 24.9624 49.7693 25.304C50.6808 25.8734 51.5923 26.3288 52.5038 26.8982C54.4407 28.0369 56.3776 29.1756 58.2006 30.2004C60.5932 31.5669 62.9859 32.9333 65.1506 34.4136C66.6318 36.1217 64.1252 37.3743 62.8719 38.0575C58.5424 40.5627 54.2128 43.0678 49.8833 45.5729C48.516 46.37 47.3767 47.1671 45.6676 47.1671C44.3004 47.1671 43.161 46.8255 42.0217 46.1423C40.1987 45.1174 38.3757 43.9788 36.5528 42.9539C33.2486 41.0181 29.7166 39.1962 26.5264 37.0327C26.7543 37.1465 26.4125 36.9188 26.2986 36.9188C26.1846 36.9188 26.0707 36.6911 26.0707 36.6911C25.9567 36.5772 25.7289 36.3495 25.7289 36.2356C25.8428 36.1217 25.7289 35.894 25.7289 35.6662Z" fill="#C7CEEF"/>
<path id="Vector_33" opacity="0.8049" d="M26.5265 35.6662C26.6405 33.9582 29.261 33.1611 30.4003 32.364C32.679 30.9975 34.9578 29.745 37.2365 28.3785C38.9455 27.3537 40.7685 26.3288 42.4775 25.304C44.0726 24.3931 45.5538 23.4821 47.4907 23.9376C47.4907 23.9376 47.4907 23.9376 47.3767 23.9376C47.7185 23.9376 48.2882 24.1653 48.4022 24.1653H48.5161C48.9718 24.2792 49.9973 24.9624 50.5669 25.304C51.4784 25.8734 52.3899 26.3288 53.3014 26.8982C55.2383 28.0369 57.1752 29.1756 58.9982 30.2004C61.3909 31.5669 63.7835 32.9333 65.9483 34.4136C67.4294 36.1217 64.9228 37.3743 63.6695 38.0575C59.34 40.5627 55.0104 43.0678 50.6809 45.5729C49.3136 46.37 48.1743 47.1671 46.4653 47.1671C45.098 47.1671 43.9587 46.8255 42.8193 46.1423C40.9963 45.1174 39.1734 43.9788 37.3504 42.9539C34.0463 41.0181 30.5142 39.1962 27.3241 37.0327C27.5519 37.1465 27.2101 36.9188 27.0962 36.9188C26.9823 36.9188 26.8683 36.6911 26.8683 36.6911C26.7544 36.5772 26.5265 36.3495 26.5265 36.2356C26.6405 36.1217 26.5265 35.894 26.5265 35.6662Z" fill="#C5CCEF"/>
<path id="Vector_34" opacity="0.8293" d="M27.324 35.6662C27.4379 33.9582 30.0584 33.1611 31.1978 32.364C33.4765 30.9975 35.7552 29.745 38.0339 28.3785C39.743 27.3537 41.5659 26.3288 43.275 25.304C44.8701 24.3931 46.3512 23.4821 48.2881 23.9376C48.2881 23.9376 48.2882 23.9376 48.1742 23.9376C48.516 23.9376 49.0857 24.1653 49.1996 24.1653H49.3136C49.7693 24.2792 50.7947 24.9624 51.3644 25.304C52.2759 25.8734 53.1874 26.3288 54.0989 26.8982C56.0358 28.0369 57.9727 29.1756 59.7957 30.2004C62.1883 31.5669 64.581 32.9333 66.7457 34.4136C68.2269 36.1217 65.7203 37.3743 64.467 38.0575C60.1375 40.5627 55.8079 43.0678 51.4784 45.5729C50.1111 46.37 48.9718 47.1671 47.2627 47.1671C45.8955 47.1671 44.7562 46.8255 43.6168 46.1423C41.7938 45.1174 39.9708 43.9788 38.1479 42.9539C34.8437 41.0181 31.3117 39.1962 28.1215 37.0327C28.3494 37.1465 28.0076 36.9188 27.8937 36.9188C27.7797 36.9188 27.6658 36.6911 27.6658 36.6911C27.5519 36.5772 27.324 36.3495 27.324 36.2356C27.4379 36.1217 27.324 35.894 27.324 35.6662Z" fill="#C3CBEE"/>
<path id="Vector_35" opacity="0.8537" d="M28.1216 35.6662C28.2355 33.9582 30.856 33.1611 31.9954 32.364C34.2741 30.9975 36.5528 29.745 38.8315 28.3785C40.5406 27.3537 42.3635 26.3288 44.0726 25.304C45.6677 24.3931 47.1488 23.4821 49.0857 23.9376C49.0857 23.9376 49.0857 23.9376 48.9718 23.9376C49.3136 23.9376 49.8833 24.1653 49.9972 24.1653H50.1112C50.5669 24.2792 51.5923 24.9624 52.162 25.304C53.0735 25.8734 53.985 26.3288 54.8965 26.8982C56.8334 28.0369 58.7703 29.1756 60.5933 30.2004C62.9859 31.5669 65.3786 32.9333 67.5433 34.4136C69.0245 36.1217 66.5179 37.3743 65.2646 38.0575C60.9351 40.5627 56.6055 43.0678 52.2759 45.5729C50.9087 46.37 49.7694 47.1671 48.0603 47.1671C46.6931 47.1671 45.5537 46.8255 44.4144 46.1423C42.5914 45.1174 40.7684 43.9788 38.9455 42.9539C35.6413 41.0181 32.1093 39.1962 28.9191 37.0327C29.147 37.1465 28.8052 36.9188 28.6913 36.9188C28.5773 36.9188 28.4634 36.6911 28.4634 36.6911C28.3494 36.5772 28.1216 36.3495 28.1216 36.2356C28.1216 36.1217 28.1216 35.894 28.1216 35.6662Z" fill="#C2C9EE"/>
<path id="Vector_36" opacity="0.878" d="M28.9191 35.6662C29.033 33.9582 31.6535 33.1611 32.7929 32.364C35.0716 30.9975 37.3503 29.745 39.629 28.3785C41.3381 27.3537 43.161 26.3288 44.8701 25.304C46.4652 24.3931 47.9464 23.4821 49.8833 23.9376C49.8833 23.9376 49.8833 23.9376 49.7693 23.9376C50.1111 23.9376 50.6808 24.1653 50.7947 24.1653H50.9087C51.3644 24.2792 52.3898 24.9624 52.9595 25.304C53.871 25.8734 54.7825 26.3288 55.694 26.8982C57.6309 28.0369 59.5678 29.1756 61.3907 30.2004C63.7834 31.5669 66.1761 32.9333 68.3408 34.4136C69.822 36.1217 67.3154 37.3743 66.0621 38.0575C61.7326 40.5627 57.403 43.0678 53.0735 45.5729C51.7062 46.37 50.5669 47.1671 48.8578 47.1671C47.4906 47.1671 46.3512 46.8255 45.2119 46.1423C43.3889 45.1174 41.5659 43.9788 39.743 42.9539C36.4388 41.0181 32.9068 39.1962 29.7166 37.0327C29.9445 37.1465 29.6027 36.9188 29.4887 36.9188C29.3748 36.9188 29.2609 36.6911 29.2609 36.6911C29.147 36.5772 28.9191 36.3495 28.9191 36.2356C28.9191 36.1217 28.9191 35.894 28.9191 35.6662Z" fill="#C0C8ED"/>
<path id="Vector_37" opacity="0.9024" d="M29.7167 35.6662C29.8306 33.9582 32.4511 33.1611 33.5905 32.364C35.8692 30.9975 38.1479 29.745 40.4266 28.3785C42.1357 27.3537 43.9586 26.3288 45.6677 25.304C47.2628 24.3931 48.7439 23.4821 50.6808 23.9376C50.6808 23.9376 50.6808 23.9376 50.5669 23.9376C50.9087 23.9376 51.4784 24.1653 51.5923 24.1653H51.7063C52.162 24.2792 53.1874 24.9624 53.7571 25.304C54.6686 25.8734 55.5801 26.3288 56.4916 26.8982C58.4285 28.0369 60.3654 29.1756 62.1884 30.2004C64.581 31.5669 66.9737 32.9333 69.1384 34.4136C70.6196 36.1217 68.113 37.3743 66.8597 38.0575C62.5302 40.5627 58.2006 43.0678 53.8711 45.5729C52.5038 46.37 51.3645 47.1671 49.6554 47.1671C48.2882 47.1671 47.1488 46.8255 46.0095 46.1423C44.1865 45.1174 42.3635 43.9788 40.5406 42.9539C37.2364 41.0181 33.7044 39.1962 30.5142 37.0327C30.7421 37.1465 30.4003 36.9188 30.2864 36.9188C30.1724 36.9188 30.0585 36.6911 30.0585 36.6911C29.9445 36.5772 29.7167 36.3495 29.7167 36.2356C29.7167 36.1217 29.7167 35.894 29.7167 35.6662Z" fill="#BEC6ED"/>
<path id="Vector_38" opacity="0.9268" d="M30.5142 35.6662C30.6281 33.9582 33.2486 33.1611 34.388 32.364C36.6667 30.9975 38.9454 29.745 41.2241 28.3785C42.9332 27.3537 44.7562 26.3288 46.4652 25.304C48.0603 24.3931 49.5414 23.4821 51.4784 23.9376C51.4784 23.9376 51.4783 23.9376 51.3644 23.9376C51.7062 23.9376 52.2759 24.1653 52.3898 24.1653H52.5038C52.9595 24.2792 53.9849 24.9624 54.5546 25.304C55.4661 25.8734 56.3776 26.3288 57.2891 26.8982C59.226 28.0369 61.1629 29.1756 62.9859 30.2004C65.3785 31.5669 67.7711 32.9333 69.9359 34.4136C71.4171 36.1217 68.9105 37.3743 67.6572 38.0575C63.3277 40.5627 58.9981 43.0678 54.6685 45.5729C53.3013 46.37 52.162 47.1671 50.4529 47.1671C49.0857 47.1671 47.9463 46.8255 46.807 46.1423C44.984 45.1174 43.1611 43.9788 41.3381 42.9539C38.0339 41.0181 34.5019 39.1962 31.3117 37.0327C31.5396 37.1465 31.1978 36.9188 31.0839 36.9188C30.9699 36.9188 30.856 36.6911 30.856 36.6911C30.7421 36.5772 30.5142 36.3495 30.5142 36.2356C30.5142 36.1217 30.5142 35.894 30.5142 35.6662Z" fill="#BCC5EC"/>
<path id="Vector_39" opacity="0.9512" d="M31.3118 35.6662C31.4257 33.9582 34.0462 33.1611 35.1856 32.364C37.4643 30.9975 39.743 29.745 42.0217 28.3785C43.7308 27.3537 45.5537 26.3288 47.2628 25.304C48.8579 24.3931 50.339 23.4821 52.2759 23.9376C52.2759 23.9376 52.276 23.9376 52.162 23.9376C52.5038 23.9376 53.0735 24.1653 53.1874 24.1653H53.3014C53.7571 24.2792 54.7825 24.9624 55.3522 25.304C56.2637 25.8734 57.1752 26.3288 58.0867 26.8982C60.0236 28.0369 61.9605 29.1756 63.7834 30.2004C66.1761 31.5669 68.5688 32.9333 70.7335 34.4136C72.2147 36.1217 69.7081 37.3743 68.4548 38.0575C64.1253 40.5627 59.7957 43.0678 55.4662 45.5729C54.0989 46.37 52.9596 47.1671 51.2505 47.1671C49.8833 47.1671 48.7439 46.8255 47.6046 46.1423C45.7816 45.1174 43.9586 43.9788 42.1357 42.9539C38.8315 41.0181 35.2995 39.1962 32.1093 37.0327C32.3372 37.1465 31.9954 36.9188 31.8814 36.9188C31.7675 36.9188 31.6536 36.6911 31.6536 36.6911C31.5397 36.5772 31.3118 36.3495 31.3118 36.2356C31.3118 36.1217 31.3118 35.894 31.3118 35.6662Z" fill="#BBC3EC"/>
<path id="Vector_40" opacity="0.9756" d="M32.1094 35.6662C32.2233 33.9582 34.8438 33.1611 35.9832 32.364C38.2619 30.9975 40.5406 29.745 42.8193 28.3785C44.5284 27.3537 46.3513 26.3288 48.0604 25.304C49.6555 24.3931 51.1366 23.4821 53.0735 23.9376C53.0735 23.9376 53.0735 23.9376 52.9596 23.9376C53.3014 23.9376 53.8711 24.1653 53.985 24.1653H54.099C54.5547 24.2792 55.5801 24.9624 56.1498 25.304C57.0613 25.8734 57.9728 26.3288 58.8843 26.8982C60.8212 28.0369 62.7581 29.1756 64.5811 30.2004C66.9737 31.5669 69.3664 32.9333 71.5311 34.4136C73.0123 36.1217 70.5057 37.3743 69.2524 38.0575C64.9229 40.5627 60.5933 43.0678 56.2637 45.5729C54.8965 46.37 53.7572 47.1671 52.0481 47.1671C50.6809 47.1671 49.5415 46.8255 48.4022 46.1423C46.5792 45.1174 44.7562 43.9788 42.9333 42.9539C39.6291 41.0181 36.0971 39.1962 32.9069 37.0327C33.1348 37.1465 32.793 36.9188 32.6791 36.9188C32.5651 36.9188 32.4512 36.6911 32.4512 36.6911C32.3372 36.5772 32.1094 36.3495 32.1094 36.2356C32.1094 36.1217 32.1094 35.894 32.1094 35.6662Z" fill="#B9C2EB"/>
<path id="Vector_41" d="M32.9069 35.6662C33.0208 33.9582 35.6413 33.1611 36.7807 32.364C39.0594 30.9975 41.3381 29.745 43.6168 28.3785C45.3259 27.3537 47.1488 26.3288 48.8579 25.304C50.453 24.3931 51.9341 23.4821 53.8711 23.9376C53.8711 23.9376 53.871 23.9376 53.7571 23.9376C54.0989 23.9376 54.6686 24.1653 54.7825 24.1653H54.8965C55.3522 24.2792 56.3776 24.9624 56.9473 25.304C57.8588 25.8734 58.7703 26.3288 59.6818 26.8982C61.6187 28.0369 63.5556 29.1756 65.3785 30.2004C67.7712 31.5669 70.1638 32.9333 72.3286 34.4136C73.8098 36.1217 71.3032 37.3743 70.0499 38.0575C65.7204 40.5627 61.3908 43.0678 57.0612 45.5729C55.694 46.37 54.5546 47.1671 52.8456 47.1671C51.4784 47.1671 50.339 46.8255 49.1997 46.1423C47.3767 45.1174 45.5537 43.9788 43.7307 42.9539C40.4266 41.0181 36.8946 39.1962 33.7044 37.0327C33.9323 37.1465 33.5905 36.9188 33.4765 36.9188C33.3626 36.9188 33.2487 36.6911 33.2487 36.6911C33.1348 36.5772 32.9069 36.3495 32.9069 36.2356C32.9069 36.1217 32.7929 35.894 32.9069 35.6662Z" fill="#B7C0EB"/>
</g>
<g id="Group_3">
<path id="Vector_42" d="M34.502 10.2734C33.4766 10.8427 33.4766 11.8676 34.502 12.4369C39.9709 15.6253 45.4398 18.8137 50.9087 22.002C51.9341 22.5714 53.6432 22.5714 54.7825 22.002C60.2514 18.8137 65.8343 15.6253 71.3032 12.4369C72.3286 11.8676 72.3286 10.8427 71.3032 10.2734C65.8343 7.085 60.3654 3.89663 54.8965 0.708264C53.871 0.138912 52.162 0.138912 51.0227 0.708264C45.5537 3.89663 39.9709 7.085 34.502 10.2734Z" fill="url(#paint0_linear_1_1618)"/>
</g>
<path id="Vector_43" d="M32.9068 12.3242V12.4381V12.5519V12.6658V12.7797V12.8936C32.9068 12.8936 32.9068 12.8936 32.9068 13.0074L33.0208 13.1213C33.0208 13.1213 33.0208 13.1213 33.1347 13.2352C33.1347 13.349 33.2486 13.3491 33.2486 13.4629C33.2486 13.4629 33.2487 13.4629 33.3626 13.5768L33.4765 13.6906L33.5904 13.8045L33.7044 13.9184L33.8183 14.0323L50.339 23.5974C50.4529 23.5974 50.9087 23.8251 50.9087 23.8251H51.0226C51.1366 23.8251 51.3644 23.939 51.3644 23.939C51.4784 23.939 51.9341 24.0529 51.9341 24.0529C52.048 24.0529 52.162 24.0529 52.162 24.0529H52.5038C52.6177 24.0529 52.9595 24.0529 53.0735 24.0529C53.1874 24.0529 53.1874 24.0529 53.3013 24.0529C53.4153 24.0529 53.7571 23.939 53.871 23.939C53.985 23.939 54.2128 23.8251 54.2128 23.8251C54.3267 23.8251 54.5546 23.7113 54.6685 23.7113C54.8964 23.5974 55.0104 23.5974 55.2382 23.4835L71.8728 13.9184C72.6704 13.4629 73.0122 12.8936 73.0122 12.3242V35.7815V35.8954V36.0092C73.0122 36.1231 73.0122 36.1231 73.0122 36.1231C72.8983 36.3509 72.7843 36.4647 72.7843 36.5786C72.6704 36.8063 72.4425 36.9202 72.3286 37.0341C72.2147 37.1479 57.0612 45.8021 55.694 46.5992C55.58 46.5992 54.5546 47.0547 54.5546 47.0547L54.2128 47.1686C54.2128 47.1686 53.985 47.1686 53.871 47.1686H53.7571C53.1874 47.2824 52.7317 47.2824 52.162 47.1686H51.8202C51.7062 47.1686 51.1365 46.9408 51.1365 46.9408H51.0226C51.0226 46.9408 50.6808 46.8269 50.5669 46.7131L50.339 46.5992L34.0462 37.1479L33.9323 37.0341C33.9323 37.0341 33.4765 36.5786 33.3626 36.3509C33.3626 36.3509 33.3626 36.3509 33.3626 36.237C33.3626 36.237 33.3626 36.237 33.3626 36.1231C33.3626 36.1231 33.3626 36.1231 33.3626 36.0092C33.3626 35.8954 33.3626 35.8954 33.3626 35.8954V35.7815V12.3242C32.7929 12.3242 32.7929 12.3242 32.9068 12.3242Z" fill="#B7C0EB"/>
<path id="Vector_44" d="M32.9068 12.3242V12.4381V12.5519V12.6658V12.7797V12.8936C32.9068 12.8936 32.9068 12.8936 32.9068 13.0074L33.0208 13.1213C33.0208 13.1213 33.0208 13.1213 33.1347 13.2352C33.1347 13.349 33.2486 13.3491 33.2486 13.4629C33.2486 13.4629 33.2487 13.4629 33.3626 13.5768L33.4765 13.6906L33.5904 13.8045L33.7044 13.9184L33.8183 14.0323L50.339 23.5974C50.4529 23.5974 50.9087 23.8251 50.9087 23.8251H51.0226C51.1366 23.8251 51.3644 23.939 51.3644 23.939C51.4784 23.939 51.9341 24.0529 51.9341 24.0529C52.048 24.0529 52.162 24.0529 52.162 24.0529H52.5038C52.6177 24.0529 52.9595 24.0529 53.0735 24.0529C53.1874 24.0529 53.1874 24.0529 53.3013 24.0529C53.4153 24.0529 53.7571 23.939 53.871 23.939C53.985 23.939 54.2128 23.8251 54.2128 23.8251C54.3267 23.8251 54.5546 23.7113 54.6685 23.7113C54.8964 23.5974 55.0104 23.5974 55.2382 23.4835L71.8728 13.9184C72.6704 13.4629 73.0122 12.8936 73.0122 12.3242V35.7815V35.8954V36.0092C73.0122 36.1231 73.0122 36.1231 73.0122 36.1231C72.8983 36.3509 72.7843 36.4647 72.7843 36.5786C72.6704 36.8063 72.4425 36.9202 72.3286 37.0341C72.2147 37.1479 57.0612 45.8021 55.694 46.5992C55.58 46.5992 54.5546 47.0547 54.5546 47.0547L54.2128 47.1686C54.2128 47.1686 53.985 47.1686 53.871 47.1686H53.7571C53.1874 47.2824 52.7317 47.2824 52.162 47.1686H51.8202C51.7062 47.1686 51.1365 46.9408 51.1365 46.9408H51.0226C51.0226 46.9408 50.6808 46.8269 50.5669 46.7131L50.339 46.5992L34.0462 37.1479L33.9323 37.0341C33.9323 37.0341 33.4765 36.5786 33.3626 36.3509C33.3626 36.3509 33.3626 36.3509 33.3626 36.237C33.3626 36.237 33.3626 36.237 33.3626 36.1231C33.3626 36.1231 33.3626 36.1231 33.3626 36.0092C33.3626 35.8954 33.3626 35.8954 33.3626 35.8954V35.7815V12.3242C32.7929 12.3242 32.7929 12.3242 32.9068 12.3242Z" fill="#B7C0EB"/>
<g id="Group_4">
<path id="Vector_45" d="M37.3504 10.5006C36.4389 11.07 36.4389 11.8671 37.3504 12.3226C42.0217 15.0555 46.5791 17.6745 51.2505 20.4074C52.162 20.9767 53.6432 20.9767 54.4407 20.4074C59.1121 17.6745 63.7834 15.0555 68.4548 12.3226C69.3663 11.7532 69.3663 10.9561 68.4548 10.5006C63.7834 7.76775 59.226 5.14872 54.5546 2.41583C53.6432 1.96035 52.162 1.96035 51.3645 2.41583C46.6931 5.14872 42.0217 7.76775 37.3504 10.5006Z" fill="#FDFCFF"/>
<path id="Vector_46" d="M57.1752 11.4116C55.8079 10.6145 54.3268 9.81746 52.9595 8.90649C51.4784 9.70359 50.1112 10.6145 48.63 11.4116C49.9972 12.2087 51.4784 13.0058 52.8456 13.9168L57.1752 11.4116Z" fill="#4CD9ED" stroke="white" stroke-width="0.2472" stroke-miterlimit="10"/>
</g>
<path id="Vector_47" d="M32.9068 11.7525C32.9068 11.6386 32.9068 11.6386 32.9068 11.6386V11.5248V11.4109C33.0207 11.1831 33.1347 11.0693 33.2486 10.9554C33.2486 10.9554 33.2486 10.9554 33.3626 10.8415C33.3626 10.8415 33.3625 10.8416 33.4765 10.7277L33.7044 10.6138C33.7044 10.6138 33.8183 10.4999 33.9322 10.4999C33.9322 10.4999 33.9322 10.4999 34.0462 10.3861C34.0462 10.3861 34.0462 10.3861 34.1601 10.3861L34.9577 9.93058L35.7552 9.47511L36.211 9.24735C36.8946 8.90574 37.5782 8.45026 38.2618 8.10865L39.0594 7.65317L39.8569 7.1977L40.3126 6.96994C40.5405 6.85607 40.7684 6.74222 40.9962 6.62835L41.5659 6.28671L42.3635 5.83124L42.5913 5.71736L43.161 5.37576L43.9586 4.92029L44.7561 4.46482L45.5537 4.00931L46.1234 3.66771L47.9463 2.64288H48.0603L48.8578 2.18741L49.6554 1.7319L49.9972 1.50418L50.5668 1.16255C50.6808 1.16255 50.6808 1.0487 50.7947 1.0487H50.9087C50.9087 1.0487 50.9087 1.0487 51.0226 1.0487H51.1365C51.2505 1.0487 51.2505 0.934826 51.3644 0.934826L51.5923 0.820949H51.7062H51.8201H52.048C52.048 0.820949 52.048 0.820949 52.162 0.820949H52.2759H52.3898C52.9595 0.707079 53.5292 0.707079 53.9849 0.820949H54.0989H54.2128C54.2128 0.820949 54.2128 0.820949 54.3267 0.820949C54.4407 0.820949 54.4407 0.820949 54.5546 0.820949C54.6685 0.820949 54.7825 0.820956 54.7825 0.934826H54.8964H55.0104C55.1243 0.934826 55.1243 1.0487 55.2382 1.0487C55.3521 1.0487 55.3522 1.16255 55.4661 1.16255L56.2636 1.61806L57.0612 2.07353L57.8588 2.52901L58.6563 2.98448L59.4538 3.43995L60.2514 3.89546L61.0489 4.35094L61.8465 4.80641L63.4416 5.71736L64.2391 6.17287L65.0367 6.62835L65.8343 7.08382L66.5178 7.42542C66.6318 7.53929 66.7457 7.5393 66.8597 7.65317L67.4293 7.99477L68.113 8.3364C69.2523 9.01962 70.3917 9.58896 71.531 10.2722C71.645 10.2722 71.645 10.3861 71.7589 10.3861L71.8728 10.4999C71.8728 10.4999 71.9868 10.4999 71.9868 10.6138L72.1007 10.7277L72.2146 10.8415L72.3286 10.9554C72.3286 10.9554 72.3286 10.9554 72.4425 11.0693C72.4425 11.0693 72.4425 11.1832 72.5565 11.1832C72.5565 11.297 72.6704 11.297 72.6704 11.297L72.7843 11.4109V11.5248C72.7843 11.5248 72.7843 11.6386 72.7843 11.7525C72.7843 12.3219 72.4425 12.8912 71.6449 13.3467L55.4661 22.6841C55.3522 22.6841 55.2382 22.7979 55.2382 22.7979C55.2382 22.7979 55.2382 22.7979 55.1243 22.7979H55.0104C55.0104 22.7979 55.0103 22.7979 54.8964 22.7979C54.8964 22.7979 54.8964 22.7979 54.7825 22.7979C54.7825 22.7979 54.7825 22.7979 54.6685 22.7979C54.6685 22.7979 54.6685 22.7979 54.5546 22.7979C54.5546 22.7979 54.5546 22.7979 54.4407 22.7979H54.3267H54.2128H54.0989H53.9849H53.871C53.871 22.7979 53.871 22.7979 53.7571 22.7979C53.7571 22.7979 53.757 22.7979 53.6431 22.7979C53.6431 22.7979 53.6431 22.7979 53.5292 22.7979C53.5292 22.7979 53.5292 22.7979 53.4152 22.7979H53.3013C53.3013 22.7979 53.3013 22.7979 53.1874 22.7979H53.0734C53.0734 22.7979 53.0734 22.7979 52.9595 22.7979C52.8456 22.7979 52.7316 22.7979 52.6177 22.7979C52.5038 22.7979 52.3898 22.7979 52.162 22.6841H52.048H51.9341C51.8201 22.6841 51.5923 22.5702 51.4783 22.5702C51.1365 22.4563 50.9086 22.3424 50.5668 22.2286L34.5019 12.8912L34.388 12.7773C34.388 12.7773 34.5019 12.7773 34.5019 12.8912H34.388C34.388 12.8912 34.274 12.8912 34.274 12.7773C34.274 12.7773 34.274 12.7773 34.1601 12.6635C34.1601 12.6635 34.0462 12.6635 34.0462 12.5496C34.0462 12.5496 34.0462 12.5496 33.9322 12.5496C33.9322 12.5496 33.9322 12.5496 33.8183 12.4357C33.8183 12.4357 33.8183 12.3219 33.7044 12.3219C33.7044 12.3219 33.7044 12.3219 33.7044 12.208C33.7044 12.208 33.7044 12.208 33.7044 12.0941V11.9802C33.7044 11.9802 33.7044 11.9803 33.7044 11.8664V11.7525C32.9068 11.8664 32.9068 11.8664 32.9068 11.7525ZM34.9577 12.4357L51.0226 21.7731C52.048 22.3424 53.757 22.3424 54.7825 21.7731C54.8964 21.7731 54.8964 21.7731 54.7825 21.7731L70.9614 12.4357C71.0753 12.4357 71.0753 12.4357 70.9614 12.4357C71.9868 11.8664 71.9868 10.8415 70.9614 10.2722L54.8964 0.934826C53.871 0.365475 52.1619 0.365475 51.1365 0.934826L34.9577 10.2722C33.9322 10.9554 33.9322 11.8664 34.9577 12.4357Z" fill="#FDFCFF"/>
<path id="Vector_48" d="M32.9069 11.867V11.9809V12.0947V12.2086V12.3225V12.4364C32.9069 12.4364 32.9069 12.4363 32.9069 12.5502L33.0208 12.6641C33.0208 12.6641 33.0208 12.6641 33.1348 12.778C33.1348 12.8918 33.2487 12.8918 33.2487 13.0057C33.2487 13.0057 33.2487 13.0057 33.3626 13.1196L33.4765 13.2334L33.5905 13.3473L33.7044 13.4612L33.8184 13.5751L50.3391 23.1402C50.453 23.1402 50.9087 23.3679 50.9087 23.3679H51.0227C51.1366 23.3679 51.3645 23.4818 51.3645 23.4818C51.4784 23.4818 51.9341 23.5957 51.9341 23.5957C52.0481 23.5957 52.162 23.5957 52.162 23.5957H52.5038C52.6178 23.5957 52.9596 23.5957 53.0735 23.5957C53.1874 23.5957 53.1875 23.5957 53.3014 23.5957C53.4153 23.5957 53.7571 23.4818 53.8711 23.4818C53.985 23.4818 54.2129 23.3679 54.2129 23.3679C54.3268 23.3679 54.5547 23.2541 54.6686 23.2541C54.8965 23.1402 55.0104 23.1402 55.2383 23.0263L71.4172 13.6889C72.2147 13.2334 72.5565 12.6641 72.5565 12.0947V35.552V35.6659V35.7798C72.5565 35.8937 72.5565 35.8936 72.5565 35.8936C72.4426 36.1214 72.3286 36.2353 72.3286 36.3491C72.2147 36.5769 71.9868 36.6908 71.8729 36.8046C71.759 36.9185 56.6055 45.5726 55.2383 46.3697C55.1243 46.3697 54.0989 46.8252 54.0989 46.8252L53.7571 46.9391C53.7571 46.9391 53.5292 46.9391 53.4153 47.053H53.3014C52.7317 47.1668 52.2759 47.1668 51.7063 47.053H51.3645C51.2505 47.053 50.6808 46.8252 50.6808 46.8252H50.5669C50.5669 46.8252 50.2251 46.7114 50.1112 46.5975L49.8833 46.4836L33.5905 37.0323L33.4765 36.9185C33.4765 36.9185 33.0208 36.463 32.9069 36.3491C32.9069 36.3491 32.9069 36.3491 32.9069 36.2353C32.9069 36.2353 32.9069 36.2353 32.9069 36.1214C32.9069 36.1214 32.9069 36.1214 32.9069 36.0075C32.9069 35.8936 32.9069 35.8936 32.9069 35.8936V35.7798V11.867C32.7929 11.867 32.7929 11.7531 32.9069 11.867Z" fill="url(#paint1_linear_1_1618)"/>
<path id="Vector_49" d="M42.4774 21.8882C42.4774 21.8882 52.048 27.8094 52.162 27.8094C52.162 27.8094 52.1619 27.8094 52.2759 27.8094C52.2759 27.8094 52.3898 27.8094 52.5037 27.8094C52.6177 27.8094 52.9595 27.8094 52.9595 27.8094H53.4152H53.5292L53.9849 27.6956C54.0988 27.6956 54.2128 27.5817 54.2128 27.5817C54.3267 27.5817 63.6694 22.002 63.6694 21.6604V34.0723C63.6694 34.0723 63.6694 34.0723 63.6694 34.1861C63.6694 34.3 63.5555 34.4139 63.5555 34.4139C63.4416 34.5278 63.4416 34.6417 63.3276 34.6417C63.3276 34.6417 55.3521 39.3103 54.5546 39.7658L53.9849 39.9935H53.757C53.757 39.9935 53.6431 39.9935 53.5292 39.9935C53.3013 39.9935 52.9595 39.9935 52.7316 39.9935C52.7316 39.9935 52.6177 39.9935 52.5037 39.9935L52.162 39.8797C52.162 39.8797 52.1619 39.8797 52.048 39.8797L51.8201 39.7658C51.8201 39.7658 51.7062 39.7658 51.7062 39.6519L43.161 34.6417H43.0471C43.0471 34.6417 42.8192 34.4139 42.7053 34.3V34.1861V21.8882C42.4774 21.8882 42.4774 21.8882 42.4774 21.8882Z" fill="url(#paint2_linear_1_1618)" stroke="white" stroke-width="0.2472" stroke-miterlimit="10"/>
</g>
<defs>
<linearGradient id="paint0_linear_1_1618" x1="72.1435" y1="11.3981" x2="33.7011" y2="11.3981" gradientUnits="userSpaceOnUse">
<stop stop-color="#4CD9ED"/>
<stop offset="1" stop-color="#5FEFC0"/>
</linearGradient>
<linearGradient id="paint1_linear_1_1618" x1="32.8449" y1="29.2667" x2="73.0074" y2="29.2667" gradientUnits="userSpaceOnUse">
<stop stop-color="#B7C0EB"/>
<stop offset="0.5105" stop-color="#E4E7FB"/>
<stop offset="0.8827" stop-color="#EFF1FE"/>
</linearGradient>
<linearGradient id="paint2_linear_1_1618" x1="63.7024" y1="31.0416" x2="42.5304" y2="31.0416" gradientUnits="userSpaceOnUse">
<stop offset="0.2443" stop-color="#4CD9ED"/>
<stop offset="0.4571" stop-color="#47ABEC"/>
<stop offset="0.6779" stop-color="#437FEC"/>
</linearGradient>
</defs>
</svg>
