<svg width="15" height="12" viewBox="0 0 15 12" fill="none" xmlns="http://www.w3.org/2000/svg">
<path fill-rule="evenodd" clip-rule="evenodd" d="M1.66683 6.83464H11.5543L8.52683 10.468C8.23183 10.8213 8.28016 11.3471 8.6335 11.6413C8.98766 11.9363 9.51266 11.888 9.80766 11.5346L13.9743 6.53464C14.0068 6.49547 14.0227 6.44964 14.0468 6.4063C14.0668 6.3713 14.091 6.3413 14.106 6.30297C14.1435 6.20714 14.166 6.1063 14.166 6.00464C14.166 6.0038 14.1668 6.00214 14.1668 6.0013C14.1668 6.00047 14.166 5.9988 14.166 5.99797C14.166 5.8963 14.1435 5.79547 14.106 5.69964C14.091 5.6613 14.0668 5.6313 14.0468 5.5963C14.0227 5.55297 14.0068 5.50714 13.9743 5.46797L9.80766 0.467969C9.64183 0.270469 9.40516 0.167969 9.16683 0.167969C8.9785 0.167969 8.78933 0.231302 8.6335 0.361302C8.28016 0.655469 8.23183 1.1813 8.52683 1.53464L11.5543 5.16797H1.66683C1.20683 5.16797 0.833496 5.5413 0.833496 6.0013C0.833496 6.4613 1.20683 6.83464 1.66683 6.83464Z" fill="white"/>
</svg>
