<svg width="48" height="49" viewBox="0 0 48 49" fill="none" xmlns="http://www.w3.org/2000/svg">
<path fill-rule="evenodd" clip-rule="evenodd" d="M13.791 19.6919C16.3143 16.1061 17.8893 11.9915 18.5212 7.33342C18.5814 6.88968 18.8955 6.52071 19.3266 6.38729C23.672 5.04252 26.1424 7.17945 26.1016 12.0521C26.0937 12.998 26.0501 13.8387 25.9571 15.1245C25.7496 17.9965 25.7661 18.7803 26.0876 19.3077C26.3967 19.8146 27.4002 19.9877 29.7735 19.5371C30.5223 19.3949 31.2736 19.2338 32.1056 19.0402C32.4729 18.9548 35.1186 18.3092 35.7949 18.1632C37.0849 17.8846 38.0105 17.7668 38.8245 17.8167C41.0294 17.9519 42.1995 19.3716 42.4017 22.0916C42.7578 26.8816 41.6576 36.503 40.56 40.0469C39.4384 43.6684 37.4824 45.0353 32.7872 45.1179C29.7685 45.171 25.1257 45.171 18.8371 45.1178C17.2318 45.0804 15.777 44.7696 14.4829 44.1884C14.8461 43.4362 15.0496 42.5938 15.0496 41.7042V23.2722C15.0496 21.9191 14.5789 20.675 13.791 19.6919Z" fill="#0046F7"/>
<path opacity="0.3" fill-rule="evenodd" clip-rule="evenodd" d="M6.91478 19.8162C4.98934 19.8162 3.42847 21.3635 3.42847 23.2722V41.7042C3.42847 43.6129 4.98934 45.1602 6.91478 45.1602H9.23899C11.1644 45.1602 12.7253 43.6129 12.7253 41.7042V23.2722C12.7253 21.3635 11.1644 19.8162 9.23899 19.8162H6.91478Z" fill="#0046F7"/>
</svg>
