<svg width="192" height="50" viewBox="0 0 192 50" fill="none" xmlns="http://www.w3.org/2000/svg">
<g id="trustpilot-logo">
<path id="Shape" fill-rule="evenodd" clip-rule="evenodd" d="M50.5398 18.3171H69.9314V21.982H62.2962V42.6415H58.1111V21.982H50.5078L50.5398 18.3171ZM69.1008 25.0307H72.6789V28.4361H72.7428C72.8705 27.9496 73.0942 27.4955 73.4136 27.0415C73.7331 26.5874 74.1165 26.1658 74.5957 25.809C75.0429 25.4198 75.5541 25.1279 76.1291 24.9009C76.6722 24.6739 77.2472 24.5442 77.8223 24.5442C78.1022 24.5442 78.3321 24.5569 78.5041 24.5664C78.6069 24.5721 78.689 24.5766 78.7487 24.5766C78.9085 24.609 79.1002 24.6415 79.2599 24.6415V28.3712C79.0043 28.3063 78.7168 28.2739 78.4293 28.2415L78.351 28.2326C78.0946 28.2034 77.8598 28.1766 77.5987 28.1766C76.9597 28.1766 76.3527 28.3063 75.7777 28.5658C75.2027 28.8252 74.7235 29.2144 74.2762 29.7009C73.8609 30.2198 73.5095 30.8361 73.2539 31.582C72.9983 32.3279 72.8705 33.2036 72.8705 34.1766V42.5442H69.0369L69.1008 25.0307ZM93.0609 42.6415H96.8306H96.8626V25.0307H93.0289V35.2469C93.0289 35.9279 92.965 36.5766 92.8053 37.1604C92.6456 37.7442 92.422 38.2631 92.0705 38.6847C91.7511 39.1063 91.3038 39.4307 90.7607 39.6901C90.2176 39.9496 89.5467 40.0793 88.7481 40.0793C87.6938 40.0793 86.8632 39.755 86.2882 39.1063C85.6812 38.4901 85.3937 37.3874 85.3937 35.8307V25.0307H81.5601V36.2198C81.5601 38.5225 82.0712 40.2739 83.0935 41.409C84.1158 42.5766 85.777 43.1279 88.0453 43.1279C89.0037 43.1279 89.9621 42.8685 90.8885 42.3171C91.815 41.7658 92.5178 41.0847 92.997 40.1766H93.0609V42.6415ZM103.348 36.9982C103.476 38.1334 103.891 38.9117 104.626 39.3982C105.36 39.8523 106.255 40.0793 107.277 40.0793C107.629 40.0793 108.044 40.0469 108.491 39.982C108.938 39.9171 109.386 39.8198 109.769 39.6577C110.184 39.4955 110.504 39.2685 110.759 38.9442C111.015 38.6198 111.143 38.2307 111.111 37.7442C111.079 37.2577 110.919 36.8361 110.568 36.5117C110.216 36.1874 109.801 35.9604 109.29 35.7334C108.779 35.5388 108.172 35.3766 107.501 35.2469C106.955 35.1413 106.409 35.0143 105.846 34.8833L105.846 34.8833C105.717 34.8533 105.587 34.823 105.456 34.7928C104.753 34.6307 104.051 34.4361 103.38 34.209C102.709 33.982 102.134 33.6901 101.591 33.2685C101.08 32.8793 100.632 32.3928 100.345 31.7766C100.025 31.1604 99.8655 30.4469 99.8655 29.5388C99.8655 28.5658 100.089 27.7874 100.568 27.1388C101.016 26.4901 101.623 25.9712 102.325 25.582C103.028 25.1928 103.827 24.9009 104.69 24.7388C105.552 24.5766 106.383 24.5117 107.149 24.5117C108.044 24.5117 108.906 24.609 109.705 24.8036C110.504 24.9982 111.271 25.2901 111.909 25.7442C112.58 26.1658 113.123 26.7496 113.539 27.4307C113.986 28.1117 114.242 28.955 114.369 29.9279H110.376C110.184 28.9874 109.769 28.3712 109.13 28.0469C108.459 27.7225 107.724 27.5604 106.862 27.5604C106.606 27.5604 106.255 27.5928 105.904 27.6252L105.903 27.6252C105.52 27.6901 105.201 27.755 104.849 27.8847C104.53 28.0144 104.242 28.209 104.019 28.4361C103.795 28.6631 103.667 28.9874 103.667 29.3766C103.667 29.8631 103.827 30.2198 104.146 30.5117C104.466 30.8036 104.881 31.0307 105.424 31.2577C105.935 31.4523 106.542 31.6144 107.213 31.7442C107.884 31.8739 108.587 32.0361 109.29 32.1982C109.993 32.3604 110.664 32.555 111.334 32.782C112.005 33.009 112.612 33.3009 113.123 33.7225C113.635 34.1117 114.082 34.5982 114.401 35.182C114.721 35.7658 114.881 36.5117 114.881 37.355C114.881 38.3928 114.657 39.2685 114.178 40.0144C113.698 40.728 113.092 41.3442 112.357 41.7982C111.622 42.2523 110.759 42.5766 109.865 42.8036C108.938 42.9982 108.044 43.1279 107.149 43.1279C106.063 43.1279 105.041 42.9982 104.114 42.7388C103.188 42.4793 102.357 42.0901 101.687 41.6036C101.016 41.0847 100.473 40.4685 100.089 39.6901C99.7058 38.9442 99.4822 38.0361 99.4502 36.9658H103.316V36.9982H103.348ZM118.874 25.0307H115.967V27.9171H118.874V38.2955C118.906 39.009 118.97 39.6901 119.097 40.2415C119.225 40.7928 119.449 41.2469 119.8 41.6361C120.152 41.9928 120.631 42.2847 121.238 42.4793C121.845 42.6739 122.644 42.7712 123.666 42.7712C124.113 42.7712 124.496 42.7712 124.912 42.7063C125.327 42.6739 125.742 42.6415 126.158 42.5766V39.5604C125.927 39.6188 125.671 39.6509 125.436 39.6804L125.359 39.6901C125.103 39.7225 124.816 39.7225 124.56 39.7225C124.113 39.7225 123.794 39.6577 123.538 39.5604C123.314 39.4631 123.123 39.3009 122.995 39.1063C122.899 38.9117 122.803 38.6523 122.771 38.3604C122.739 38.0361 122.707 37.7117 122.707 37.2901V27.8847H126.158V24.9982H122.707V19.7117H118.874V25.0307ZM128.873 25.0307H132.451V27.4307H132.515C133.058 26.3928 133.793 25.6793 134.751 25.2252C135.71 24.7712 136.732 24.5442 137.882 24.5442C139.256 24.5442 140.438 24.7712 141.46 25.2901C142.483 25.7766 143.313 26.4252 143.984 27.3009C144.655 28.1442 145.166 29.1496 145.486 30.2847C145.805 31.4198 145.997 32.6523 145.997 33.9171C145.997 35.1171 145.837 36.2523 145.549 37.355C145.23 38.4577 144.783 39.4631 144.176 40.3063C143.569 41.1496 142.802 41.8307 141.844 42.3496C140.885 42.8685 139.799 43.1279 138.521 43.1279C137.978 43.1279 137.403 43.0631 136.86 42.9658C136.317 42.8685 135.774 42.7063 135.263 42.4793C134.751 42.2523 134.272 41.9604 133.857 41.6036C133.41 41.2469 133.058 40.8252 132.771 40.3712H132.707V49.1604H128.873V25.0307ZM141.907 31.5496C142.131 32.2955 142.227 33.0739 142.227 33.8523C142.227 34.6307 142.131 35.3766 141.971 36.155C141.812 36.9009 141.524 37.5496 141.141 38.1334C140.725 38.6847 140.246 39.1712 139.639 39.528C139.032 39.8847 138.329 40.0793 137.435 40.0793C136.636 40.0793 135.965 39.9171 135.358 39.5928C134.751 39.2685 134.24 38.8469 133.825 38.2955C133.378 37.7442 133.09 37.0955 132.867 36.3496C132.643 35.6036 132.547 34.7928 132.547 33.8847C132.547 32.0036 132.962 30.4793 133.761 29.3442C134.592 28.209 135.806 27.6577 137.403 27.6577C138.17 27.6577 138.873 27.8198 139.48 28.1766C140.055 28.5334 140.566 28.9874 140.981 29.5712C141.396 30.155 141.716 30.8036 141.907 31.5496ZM148.968 18.3171H152.801V21.982H148.968V18.3171ZM152.801 25.0307H148.968V42.6415H152.801V25.0307ZM156.22 18.3171H160.053V42.6415H156.22V18.3171ZM168.04 42.4144C169.126 42.9009 170.372 43.1279 171.746 43.1279C173.151 43.1279 174.365 42.8685 175.452 42.4144C176.538 41.9604 177.464 41.3117 178.199 40.5009C178.934 39.6577 179.477 38.6847 179.892 37.5496C180.307 36.4144 180.499 35.182 180.499 33.8198C180.499 32.4901 180.276 31.2577 179.892 30.1225C179.509 28.9874 178.934 27.982 178.199 27.1712C177.432 26.3604 176.538 25.7117 175.452 25.2577C174.365 24.7712 173.119 24.5442 171.746 24.5442C170.372 24.5442 169.126 24.8036 168.04 25.2577C166.954 25.7117 166.027 26.3604 165.293 27.1712C164.558 28.0144 163.983 28.9874 163.599 30.1225C163.184 31.2577 162.992 32.4901 162.992 33.8198C162.992 35.1496 163.216 36.4144 163.599 37.5496C163.983 38.6847 164.558 39.6901 165.293 40.5009C166.059 41.3117 166.954 41.9279 168.04 42.4144ZM171.746 40.0469C172.576 40.0469 173.343 39.8523 173.95 39.4955C174.589 39.1388 175.068 38.6523 175.484 38.0685C175.899 37.4847 176.186 36.8036 176.378 36.0901C176.57 35.3442 176.666 34.5982 176.666 33.8198C176.666 33.0739 176.57 32.3279 176.378 31.582C176.186 30.8361 175.899 30.1874 175.484 29.6036C175.068 29.0198 174.557 28.5658 173.95 28.209C173.311 27.8523 172.576 27.6577 171.746 27.6577C170.915 27.6577 170.148 27.8523 169.541 28.209C168.902 28.5658 168.423 29.0523 168.008 29.6036C167.593 30.1874 167.305 30.8361 167.113 31.582C166.922 32.3279 166.826 33.0739 166.826 33.8198C166.826 34.5982 166.922 35.3442 167.113 36.0901C167.305 36.8361 167.593 37.4847 168.008 38.0685C168.423 38.6523 168.934 39.1388 169.541 39.4955C170.18 39.8847 170.915 40.0469 171.746 40.0469ZM184.556 25.0307H181.649V27.9171H184.556V38.2955C184.588 39.009 184.652 39.6901 184.78 40.2415C184.908 40.7928 185.131 41.2469 185.483 41.6361C185.834 41.9928 186.313 42.2847 186.92 42.4793C187.527 42.6739 188.326 42.7712 189.348 42.7712C189.796 42.7712 190.179 42.7712 190.594 42.7063C191.01 42.6739 191.425 42.6415 191.84 42.5766V39.5604C191.61 39.6188 191.354 39.6509 191.118 39.6804C191.093 39.6837 191.067 39.6869 191.042 39.6901C190.786 39.7225 190.498 39.7225 190.243 39.7225C189.796 39.7225 189.476 39.6577 189.221 39.5604C188.997 39.4631 188.805 39.3009 188.678 39.1063C188.582 38.9117 188.486 38.6523 188.454 38.3604L188.454 38.3601C188.422 38.0359 188.39 37.7116 188.39 37.2901V27.8847H191.84V24.9982H188.39V19.7117H184.556V25.0307Z" fill="white"/>
<path id="Path" d="M46.0672 18.3173H28.5284L23.1294 1.38757L17.6984 18.3173L0.159668 18.2849L14.344 28.7605L8.91308 45.6903L23.0974 35.2146L37.2818 45.6903L31.8828 28.7605L46.0672 18.3173Z" fill="#00B67A"/>
<path id="Path_2" d="M33.0969 32.5874L31.8829 28.7604L23.1295 35.2144L33.0969 32.5874Z" fill="#005128"/>
</g>
</svg>
