<svg width="27" height="27" viewBox="0 0 27 27" fill="none" xmlns="http://www.w3.org/2000/svg">
<path id="s " d="M12.0366 2.05701C12.2385 1.65857 12.5328 1.39294 12.9197 1.26013C13.3066 1.12732 13.6934 1.12732 14.0803 1.26013C14.4672 1.39294 14.7615 1.65857 14.9634 2.05701L18.2434 8.63123L25.6107 9.67712C26.0481 9.74353 26.3929 9.94275 26.6452 10.2748C26.8975 10.6068 27.0152 10.972 26.9984 11.3705C26.9816 11.7689 26.8218 12.1176 26.519 12.4164L21.1701 17.5463L22.4317 24.8177C22.4989 25.2162 22.4233 25.5897 22.2046 25.9384C21.9859 26.287 21.6747 26.5111 21.2711 26.6107C20.8674 26.7103 20.4805 26.6605 20.1104 26.4613L13.5 23.0746L6.88956 26.4613C6.51951 26.6605 6.13264 26.7103 5.72895 26.6107C5.32525 26.5111 5.01408 26.287 4.79541 25.9384C4.57674 25.5897 4.50105 25.2162 4.56833 24.8177L5.82987 17.5463L0.48096 12.4164C0.178192 12.1176 0.0183971 11.7689 0.00157688 11.3705C-0.0152433 10.972 0.1025 10.6068 0.354807 10.2748C0.607114 9.94275 0.951933 9.74353 1.38927 9.67712L8.75663 8.63123L12.0366 2.05701Z" fill="#FF8B00"/>
</svg>
